<svg width="908" height="121" viewBox="0 0 908 121" fill="none" xmlns="http://www.w3.org/2000/svg">
<path d="M211.668 30.5755L211.829 43.1182V53.2489H246.241C247.098 56.465 247.527 59.9761 247.527 63.7815C247.527 67.587 247.098 71.0981 246.241 74.3142H211.829V118.535C208.398 119.178 204.11 119.5 198.964 119.5C193.819 119.5 189.531 119.178 186.1 118.535V9.67102L187.226 8.7062H256.05C256.693 11.3862 257.015 14.7363 257.015 18.7564C257.015 22.7765 255.916 25.7514 253.718 27.6811C251.521 29.6107 248.063 30.5755 243.346 30.5755H211.668ZM298.502 56.7866V118.535C296.679 118.857 294.697 119.098 292.552 119.259C290.408 119.42 288.211 119.5 285.959 119.5C283.708 119.5 281.483 119.42 279.286 119.259C277.089 119.098 275.079 118.857 273.256 118.535V65.3092C273.256 59.0917 270.737 55.9826 265.698 55.9826H263.286C262.643 53.946 262.321 51.1046 262.321 47.4599C262.321 43.9223 262.643 40.9209 263.286 38.4549C266.074 38.2403 268.646 38.0529 271.005 37.8921C273.363 37.7313 275.507 37.6509 277.437 37.6509H280.974C286.442 37.6509 290.73 39.3659 293.839 42.7966C296.948 46.2274 298.502 50.8907 298.502 56.7866ZM270.361 5.97253C273.47 4.25732 277.491 3.39967 282.422 3.39967C287.46 3.39967 291.373 4.25732 294.16 5.97253C295.447 8.867 296.09 11.9759 296.09 15.2992C296.09 18.6224 295.447 21.7313 294.16 24.6258C291.051 26.2338 286.978 27.0378 281.939 27.0378C276.9 27.0378 273.041 26.2338 270.361 24.6258C269.075 21.7313 268.432 18.6224 268.432 15.2992C268.432 11.9759 269.075 8.867 270.361 5.97253ZM348.834 100.204H353.175C354.462 103.741 355.105 107.279 355.105 110.817C355.105 114.354 354.944 116.659 354.623 117.731C348.19 118.803 342.455 119.339 337.417 119.339C330.127 119.339 324.954 117.544 321.899 113.952C318.844 110.361 317.316 104.706 317.316 96.9876V1.30922L318.281 0.183594H328.09C333.129 0.183594 336.666 1.30922 338.703 3.56047C340.74 5.81173 341.758 9.72465 341.758 15.2992V92.6459C341.758 97.6846 344.116 100.204 348.834 100.204ZM412.673 38.1333C413.316 41.1347 413.638 44.1369 413.638 47.1383C413.638 50.1397 413.316 53.0881 412.673 55.9826L393.537 55.6609V92.6459C393.537 97.6846 395.895 100.204 400.613 100.204H409.618C411.011 104.063 411.708 107.601 411.708 110.817C411.708 114.033 411.493 116.338 411.065 117.731C403.132 118.803 395.842 119.339 389.195 119.339C375.688 119.339 368.934 111.888 368.934 96.9876V55.8217L356.391 55.9826C355.641 53.3028 355.266 50.381 355.266 47.2187C355.266 44.0565 355.641 41.0278 356.391 38.1333L368.934 38.4549V29.1283C368.934 23.661 369.979 19.7749 372.07 17.47C374.16 15.1652 377.671 14.0127 382.602 14.0127H392.412L393.537 15.1384V38.4549L412.673 38.1333ZM487.447 86.5353H445.477C445.691 91.3594 446.924 95.1118 449.175 97.7916C451.427 100.471 455.125 101.812 460.271 101.812C462.844 101.812 465.819 101.436 469.195 100.686C472.572 99.9359 476.458 98.7025 480.854 96.9876C484.391 100.632 486.589 105.564 487.447 111.782C478.87 117.892 468.365 120.947 455.929 120.947C449.175 120.947 443.521 119.876 438.964 117.731C434.408 115.587 430.709 112.586 427.869 108.726C425.028 104.867 423.018 100.311 421.839 95.0579C420.659 89.8052 420.07 84.0694 420.07 77.8519C420.07 71.8483 420.793 66.3005 422.241 61.2087C423.688 56.1168 425.885 51.6947 428.834 47.9424C431.782 44.19 435.534 41.2425 440.09 39.0981C444.646 36.9541 449.979 35.8821 456.09 35.8821C461.236 35.8821 465.872 36.7397 469.999 38.4549C474.126 40.1699 477.638 42.5289 480.532 45.5303C483.427 48.5317 485.651 52.1233 487.205 56.3042C488.76 60.4851 489.537 65.0414 489.537 69.9725C489.537 76.5116 488.84 82.0328 487.447 86.5353ZM445.316 69.1685H466.542V67.3996C466.542 63.4334 465.658 60.1635 463.889 57.5906C462.12 55.0177 459.467 53.7313 455.929 53.7313C452.498 53.7313 449.953 54.9373 448.291 57.3494C446.629 59.7615 445.638 63.7011 445.316 69.1685ZM499.989 49.872C500.526 47.7277 501.544 45.343 503.045 42.7162C504.546 40.0895 506.046 38.1872 507.547 37.0077C517.41 37.7581 524.271 42.6358 528.13 51.6409C532.204 41.9926 538.904 37.1685 548.231 37.1685C551.018 37.1685 554.556 37.5973 558.844 38.4549C558.844 41.7779 558.281 45.7176 557.155 50.274C556.03 54.8304 554.502 58.7162 552.572 61.9323C550.75 61.2891 548.016 60.7528 544.371 60.3243C539.011 60.3243 534.616 63.0579 531.185 68.5253V118.535C527.648 119.178 523.493 119.5 518.723 119.5C513.953 119.5 509.745 119.178 506.1 118.535V66.5956C506.1 58.5554 504.063 52.9812 499.989 49.872ZM604.834 94.0931C610.086 97.3092 615.179 98.9172 620.11 98.9172C625.256 98.9172 628.82 97.2826 630.803 94.0127C632.787 90.7427 633.778 85.6774 633.778 78.8167V8.7062C636.994 8.06299 641.229 7.74138 646.482 7.74138C651.734 7.74138 656.076 8.06299 659.507 8.7062V76.4047C659.507 83.2654 658.918 89.4032 657.738 94.8167C656.559 100.23 654.522 104.813 651.627 108.565C648.733 112.318 644.9 115.185 640.13 117.168C635.36 119.152 629.383 120.143 622.2 120.143C612.23 120.143 603.493 117.785 595.989 113.068C597.169 105.671 600.116 99.3457 604.834 94.0931ZM737.658 45.3695C745.376 53.0881 749.235 64.1297 749.235 78.4951C749.235 84.9273 748.405 90.7701 746.743 96.0227C745.082 101.275 742.669 105.751 739.507 109.45C736.345 113.148 732.458 115.989 727.849 117.972C723.239 119.956 717.933 120.947 711.929 120.947C705.925 120.947 700.646 119.929 696.09 117.892C691.533 115.855 687.674 112.988 684.512 109.289C681.35 105.591 678.964 101.115 677.356 95.8619C675.748 90.6093 674.944 84.8203 674.944 78.4951C674.944 72.0629 675.748 66.2475 677.356 61.0479C678.964 55.8483 681.322 51.3731 684.431 47.6208C687.541 43.8684 691.4 40.9739 696.009 38.9373C700.62 36.9005 705.925 35.8821 711.929 35.8821C722.542 35.8821 731.119 39.0443 737.658 45.3695ZM712.09 54.6961C709.732 54.6961 707.828 55.2589 706.381 56.3846C704.934 57.5102 703.782 59.0378 702.924 60.9675C702.066 62.8971 701.477 65.1218 701.155 67.6408C700.834 70.1598 700.673 72.867 700.673 75.7614C700.673 80.2639 700.807 84.1498 701.075 87.4197C701.342 90.6897 701.879 93.4233 702.683 95.6207C703.487 97.8181 704.612 99.4535 706.06 100.525C707.507 101.597 709.41 102.133 711.768 102.133C716.485 102.133 719.594 100.069 721.095 95.9423C722.596 91.8153 723.346 85.946 723.346 78.3343C723.346 70.6157 722.596 64.7464 721.095 60.7263C719.594 56.7062 716.592 54.6961 712.09 54.6961ZM763.708 114.515V1.30922L764.833 0.183594H774.321C779.252 0.183594 782.79 1.30922 784.934 3.56047C787.078 5.81173 788.15 9.72465 788.15 15.2992V42.1534C793.724 38.5088 799.943 36.6861 806.803 36.6861C816.237 36.6861 823.34 40.4915 828.11 48.1032C832.88 55.7148 835.266 65.9524 835.266 78.8167C835.266 84.9273 834.301 90.5015 832.371 95.5403C830.441 100.579 827.762 104.921 824.331 108.565C820.9 112.21 816.719 115.024 811.788 117.008C806.857 118.991 801.443 119.983 795.547 119.983C783.326 119.983 772.713 118.16 763.708 114.515ZM799.245 56.7866C795.065 56.7866 791.366 58.5554 788.15 62.0931V101.329C789.222 101.544 790.375 101.705 791.607 101.812C792.84 101.919 794.154 101.972 795.547 101.972C804.874 101.972 809.537 93.8784 809.537 77.6911C809.537 63.8619 806.106 56.8935 799.245 56.7866ZM843.306 113.068C843.413 110.28 844.136 107.225 845.477 103.902C846.817 100.579 848.398 97.9524 850.22 96.0227C858.797 100.525 866.247 102.777 872.572 102.777C875.574 102.777 877.879 102.268 879.487 101.249C881.095 100.23 881.899 98.8633 881.899 97.1484C881.899 93.9323 879.433 91.5202 874.502 89.9122L865.658 86.5353C852.257 81.6042 845.557 73.5641 845.557 62.4147C845.557 54.2676 848.371 47.8081 853.999 43.0378C859.627 38.2676 867.212 35.8821 876.753 35.8821C881.47 35.8821 886.669 36.5521 892.351 37.8921C898.033 39.2324 902.696 40.8131 906.341 42.6358C906.556 45.6372 905.965 48.9337 904.572 52.5253C903.179 56.1168 901.463 58.6624 899.426 60.1635C890.421 56.0895 882.917 54.0529 876.914 54.0529C874.77 54.0529 873.135 54.5353 872.009 55.5001C870.884 56.465 870.321 57.6975 870.321 59.1986C870.321 61.7715 872.357 63.8081 876.431 65.3092L886.401 68.8469C900.659 73.8857 907.788 82.5152 907.788 94.7363C907.788 102.777 904.84 109.155 898.944 113.872C893.048 118.589 884.632 120.947 873.698 120.947C862.763 120.947 852.632 118.321 843.306 113.068Z" fill="#111111"/>
<path d="M127.709 20.1267H93.3255V10.0633C93.3255 7.39437 92.2905 4.83472 90.4482 2.94748C88.6059 1.06024 86.1072 0 83.5018 0H54.0305C51.4251 0 48.9264 1.06024 47.0841 2.94748C45.2418 4.83472 44.2068 7.39437 44.2068 10.0633V20.1267H9.82374C7.21832 20.1267 4.71961 21.1869 2.87731 23.0742C1.035 24.9614 0 27.521 0 30.19V110.697C0 113.366 1.035 115.925 2.87731 117.813C4.71961 119.7 7.21832 120.76 9.82374 120.76H127.709C130.314 120.76 132.813 119.7 134.655 117.813C136.497 115.925 137.532 113.366 137.532 110.697V30.19C137.532 27.521 136.497 24.9614 134.655 23.0742C132.813 21.1869 130.314 20.1267 127.709 20.1267ZM54.0305 10.0633H83.5018V20.1267H54.0305V10.0633ZM127.709 30.19V75.475H9.82374V30.19H127.709ZM9.82374 110.697V85.5383H127.709V110.697H9.82374Z" fill="black"/>
<path d="M63.8529 70.4435H73.6766C74.9794 70.4435 76.2287 69.9134 77.1499 68.9698C78.071 68.0262 78.5885 66.7463 78.5885 65.4119C78.5885 64.0774 78.071 62.7975 77.1499 61.8539C76.2287 60.9103 74.9794 60.3802 73.6766 60.3802H63.8529C62.5502 60.3802 61.3008 60.9103 60.3797 61.8539C59.4585 62.7975 58.941 64.0774 58.941 65.4119C58.941 66.7463 59.4585 68.0262 60.3797 68.9698C61.3008 69.9134 62.5502 70.4435 63.8529 70.4435Z" fill="black"/>
</svg>
