<svg width="256" height="256" viewBox="0 0 256 256" fill="none" xmlns="http://www.w3.org/2000/svg">
<path d="M230.857 59.2857H170.857V42.1429C170.857 37.5963 169.051 33.2359 165.836 30.021C162.621 26.8061 158.261 25 153.714 25H102.286C97.7391 25 93.3788 26.8061 90.1639 30.021C86.949 33.2359 85.1429 37.5963 85.1429 42.1429V59.2857H25.1429C20.5963 59.2857 16.2359 61.0918 13.021 64.3068C9.80612 67.5217 8 71.882 8 76.4286V213.571C8 218.118 9.80612 222.478 13.021 225.693C16.2359 228.908 20.5963 230.714 25.1429 230.714H230.857C235.404 230.714 239.764 228.908 242.979 225.693C246.194 222.478 248 218.118 248 213.571V76.4286C248 71.882 246.194 67.5217 242.979 64.3068C239.764 61.0918 235.404 59.2857 230.857 59.2857ZM102.286 42.1429H153.714V59.2857H102.286V42.1429ZM230.857 76.4286V153.571H25.1429V76.4286H230.857ZM25.1429 213.571V170.714H230.857V213.571H25.1429Z" fill="black"/>
<path d="M119.427 145H136.57C138.843 145 141.023 144.097 142.631 142.49C144.238 140.882 145.141 138.702 145.141 136.429C145.141 134.156 144.238 131.975 142.631 130.368C141.023 128.76 138.843 127.857 136.57 127.857H119.427C117.154 127.857 114.973 128.76 113.366 130.368C111.759 131.975 110.855 134.156 110.855 136.429C110.855 138.702 111.759 140.882 113.366 142.49C114.973 144.097 117.154 145 119.427 145Z" fill="black"/>
</svg>
